<svg width="150" height="150" viewBox="0 0 150 150" fill="none" xmlns="http://www.w3.org/2000/svg">
<rect width="150" height="150" fill="#3A9433" fill-opacity="0.59"/>
<circle cx="75.5" cy="75.5" r="42.5" stroke="#20F20E" stroke-width="10"/>
<path d="M14.0263 92H9.59446L22.4126 57.0909H26.7763L39.5945 92H35.1626L24.7308 62.6136H24.4581L14.0263 92ZM15.6626 78.3636H33.5263V82.1136H15.6626V78.3636ZM45.032 92V57.0909H49.2592V88.25H65.4865V92H45.032ZM76.2592 57.0909V92H72.032V57.0909H76.2592ZM86.1669 57.0909L96.5305 86.4773H96.9396L107.303 57.0909H111.735L98.9169 92H94.5533L81.7351 57.0909H86.1669ZM117.173 92V57.0909H138.241V60.8409H121.4V72.6364H137.15V76.3864H121.4V88.25H138.513V92H117.173Z" fill="#A5FF8E"/>
</svg>
