<svg width="150" height="150" viewBox="0 0 150 150" fill="none" xmlns="http://www.w3.org/2000/svg">
<rect width="150" height="150" fill="#943333" fill-opacity="0.59"/>
<circle cx="75.5" cy="75.5" r="42.5" stroke="#F20E0E" stroke-width="10"/>
<path d="M21.7188 90H12.7415V60.9091H22.1165C24.9384 60.9091 27.3532 61.4915 29.3608 62.6562C31.3684 63.8116 32.9072 65.4735 33.9773 67.642C35.0473 69.8011 35.5824 72.3864 35.5824 75.3977C35.5824 78.428 35.0426 81.0369 33.9631 83.2244C32.8835 85.4025 31.3116 87.0786 29.2472 88.2528C27.1828 89.4176 24.6733 90 21.7188 90ZM16.2642 86.875H21.4915C23.8968 86.875 25.8902 86.411 27.4716 85.483C29.053 84.5549 30.232 83.2339 31.0085 81.5199C31.785 79.8059 32.1733 77.7652 32.1733 75.3977C32.1733 73.0492 31.7898 71.0275 31.0227 69.3324C30.2557 67.6278 29.1098 66.321 27.5852 65.4119C26.0606 64.4934 24.1619 64.0341 21.8892 64.0341H16.2642V86.875ZM41.4915 90V60.9091H59.0483V64.0341H45.0142V73.8636H58.1392V76.9886H45.0142V86.875H59.2756V90H41.4915ZM66.5909 90H62.8977L73.5795 60.9091H77.2159L87.8977 90H84.2045L75.5114 65.5114H75.2841L66.5909 90ZM67.9545 78.6364H82.8409V81.7614H67.9545V78.6364ZM87.4396 64.0341V60.9091H109.258V64.0341H100.11V90H96.5874V64.0341H87.4396ZM114.695 90V60.9091H118.217V73.8636H133.729V60.9091H137.251V90H133.729V76.9886H118.217V90H114.695Z" fill="#FF8E8E"/>
</svg>
