<svg width="150" height="150" viewBox="0 0 150 150" fill="none" xmlns="http://www.w3.org/2000/svg">
<rect width="150" height="150" fill="#383838" fill-opacity="0.59"/>
<circle cx="75.5" cy="75.5" r="42.5" stroke="#5C5555" stroke-width="10"/>
<path d="M18.6072 77.0795V64.1818H21.9595V86H18.6072V82.3068H18.38C17.8686 83.4148 17.0732 84.357 15.9936 85.1335C14.9141 85.9006 13.5504 86.2841 11.9027 86.2841C10.5391 86.2841 9.32694 85.9858 8.26634 85.3892C7.20573 84.7831 6.3724 83.8741 5.76634 82.6619C5.16027 81.4403 4.85724 79.9015 4.85724 78.0455V64.1818H8.20952V77.8182C8.20952 79.4091 8.65459 80.678 9.54474 81.625C10.4444 82.572 11.5902 83.0455 12.9822 83.0455C13.8156 83.0455 14.6631 82.8324 15.5249 82.4062C16.3961 81.9801 17.1252 81.3267 17.7124 80.446C18.3089 79.5653 18.6072 78.4432 18.6072 77.0795ZM31.4517 72.875V86H28.0994V64.1818H31.3381V67.5909H31.6222C32.1335 66.483 32.91 65.5928 33.9517 64.9205C34.9934 64.2386 36.3381 63.8977 37.9858 63.8977C39.4631 63.8977 40.7557 64.2008 41.8636 64.8068C42.9716 65.4034 43.8333 66.3125 44.4489 67.5341C45.0644 68.7462 45.3722 70.2803 45.3722 72.1364V86H42.0199V72.3636C42.0199 70.6496 41.5748 69.3144 40.6847 68.358C39.7945 67.392 38.5729 66.9091 37.0199 66.9091C35.9498 66.9091 34.9934 67.1411 34.1506 67.6051C33.3172 68.0691 32.6591 68.7462 32.1761 69.6364C31.6932 70.5265 31.4517 71.6061 31.4517 72.875ZM54.6229 78.0455L54.5661 73.8977H55.2479L64.7933 64.1818H68.9411L58.7706 74.4659H58.4865L54.6229 78.0455ZM51.4979 86V56.9091H54.8501V86H51.4979ZM65.3615 86L56.8388 75.2045L59.2251 72.875L69.6229 86H65.3615ZM76.608 72.875V86H73.2557V64.1818H76.4943V67.5909H76.7784C77.2898 66.483 78.0663 65.5928 79.108 64.9205C80.1496 64.2386 81.4943 63.8977 83.142 63.8977C84.6193 63.8977 85.9119 64.2008 87.0199 64.8068C88.1278 65.4034 88.9896 66.3125 89.6051 67.5341C90.2206 68.7462 90.5284 70.2803 90.5284 72.1364V86H87.1761V72.3636C87.1761 70.6496 86.7311 69.3144 85.8409 68.358C84.9508 67.392 83.7292 66.9091 82.1761 66.9091C81.1061 66.9091 80.1496 67.1411 79.3068 67.6051C78.4735 68.0691 77.8153 68.7462 77.3324 69.6364C76.8494 70.5265 76.608 71.6061 76.608 72.875ZM105.518 86.4545C103.548 86.4545 101.82 85.9858 100.333 85.0483C98.8558 84.1108 97.7005 82.7992 96.8672 81.1136C96.0433 79.428 95.6314 77.4583 95.6314 75.2045C95.6314 72.9318 96.0433 70.9479 96.8672 69.2528C97.7005 67.5578 98.8558 66.2415 100.333 65.304C101.82 64.3665 103.548 63.8977 105.518 63.8977C107.487 63.8977 109.211 64.3665 110.688 65.304C112.175 66.2415 113.33 67.5578 114.154 69.2528C114.987 70.9479 115.404 72.9318 115.404 75.2045C115.404 77.4583 114.987 79.428 114.154 81.1136C113.33 82.7992 112.175 84.1108 110.688 85.0483C109.211 85.9858 107.487 86.4545 105.518 86.4545ZM105.518 83.4432C107.014 83.4432 108.245 83.0597 109.211 82.2926C110.177 81.5256 110.892 80.517 111.356 79.267C111.82 78.017 112.052 76.6629 112.052 75.2045C112.052 73.7462 111.82 72.3873 111.356 71.1278C110.892 69.8684 110.177 68.8504 109.211 68.0739C108.245 67.2973 107.014 66.9091 105.518 66.9091C104.022 66.9091 102.79 67.2973 101.825 68.0739C100.859 68.8504 100.144 69.8684 99.6797 71.1278C99.2157 72.3873 98.9837 73.7462 98.9837 75.2045C98.9837 76.6629 99.2157 78.017 99.6797 79.267C100.144 80.517 100.859 81.5256 101.825 82.2926C102.79 83.0597 104.022 83.4432 105.518 83.4432ZM124.722 86L118.075 64.1818H121.597L126.313 80.8864H126.54L131.2 64.1818H134.779L139.381 80.8295H139.609L144.325 64.1818H147.847L141.2 86H137.904L133.131 69.2386H132.79L128.018 86H124.722Z" fill="#AAA9A9"/>
</svg>
